<svg width="24" height="24" viewBox="0 0 24 24" fill="none" xmlns="http://www.w3.org/2000/svg">
<path fill-rule="evenodd" clip-rule="evenodd" d="M20.5 12C20.5 16.6944 16.6944 20.5 12 20.5C7.30558 20.5 3.5 16.6944 3.5 12C3.5 7.30558 7.30558 3.5 12 3.5C16.6944 3.5 20.5 7.30558 20.5 12ZM22 12C22 17.5228 17.5228 22 12 22C6.47715 22 2 17.5228 2 12C2 6.47715 6.47715 2 12 2C17.5228 2 22 6.47715 22 12ZM15.0728 8.93029C15.3267 9.18414 15.3266 9.5957 15.0728 9.84953L12.921 12.0013L15.0728 14.153C15.3266 14.4069 15.3267 14.8184 15.0728 15.0723C14.819 15.3261 14.4074 15.3261 14.1536 15.0723L12.0018 12.9205L9.84993 15.0723C9.59609 15.3261 9.18453 15.3261 8.93069 15.0723C8.67685 14.8184 8.67686 14.4069 8.9307 14.153L11.0825 12.0013L8.9307 9.84953C8.67686 9.5957 8.67685 9.18414 8.93069 8.93029C9.18453 8.67645 9.59609 8.67645 9.84993 8.93028L12.0018 11.0821L14.1536 8.93028C14.4074 8.67645 14.819 8.67645 15.0728 8.93029Z" fill="#4A4A4A"/>
</svg>
