<svg width="24" height="24" viewBox="0 0 24 24" fill="none" xmlns="http://www.w3.org/2000/svg">
<g id="Search ST">
<path id="Search Standard" fill-rule="evenodd" clip-rule="evenodd" d="M3.85835 10.3221C3.85835 6.74723 6.73791 3.85829 10.2789 3.85829C13.8198 3.85829 16.6994 6.74723 16.6994 10.3221C16.6994 13.897 13.8198 16.7859 10.2789 16.7859C6.73791 16.7859 3.85835 13.897 3.85835 10.3221ZM10.2789 2.05829C5.73381 2.05829 2.05835 5.76314 2.05835 10.3221C2.05835 14.8811 5.73381 18.5859 10.2789 18.5859C12.2326 18.5859 14.0257 17.9014 15.4352 16.7586L20.4099 21.7628C20.7604 22.1153 21.3285 22.1153 21.679 21.7628C22.0294 21.4103 22.0294 20.8388 21.679 20.4863L16.702 15.4799C17.8271 14.0655 18.4994 12.2719 18.4994 10.3221C18.4994 5.76314 14.8239 2.05829 10.2789 2.05829Z" fill="#4A4A4A"/>
</g>
</svg>
